<?xml version="1.0" encoding="UTF-8"?>
<svg width="40" height="40" viewBox="0 0 40 40" fill="none" xmlns="http://www.w3.org/2000/svg">
    <!-- Neural Network Grid Background -->
    <g opacity="0.2">
        <circle cx="10" cy="10" r="2" fill="#3B82F6"/>
        <circle cx="20" cy="10" r="2" fill="#3B82F6"/>
        <circle cx="30" cy="10" r="2" fill="#3B82F6"/>
        <circle cx="10" cy="20" r="2" fill="#3B82F6"/>
        <circle cx="20" cy="20" r="2" fill="#3B82F6"/>
        <circle cx="30" cy="20" r="2" fill="#3B82F6"/>
        <circle cx="10" cy="30" r="2" fill="#3B82F6"/>
        <circle cx="20" cy="30" r="2" fill="#3B82F6"/>
        <circle cx="30" cy="30" r="2" fill="#3B82F6"/>
        
        <!-- Connecting Lines -->
        <line x1="10" y1="10" x2="20" y2="20" stroke="#3B82F6" stroke-width="1"/>
        <line x1="20" y1="10" x2="30" y2="20" stroke="#3B82F6" stroke-width="1"/>
        <line x1="10" y1="20" x2="20" y2="30" stroke="#3B82F6" stroke-width="1"/>
        <line x1="20" y1="20" x2="30" y2="30" stroke="#3B82F6" stroke-width="1"/>
    </g>
    
    <!-- Main Logo Shape -->
    <path d="M20 5 L35 35 L5 35 Z" fill="#3B82F6"/>
    
    <!-- Inner Triangle -->
    <path d="M20 15 L30 32 L10 32 Z" fill="#1D4ED8"/>
    
    <!-- Center Point -->
    <circle cx="20" cy="25" r="3" fill="#FFFFFF"/>
</svg>
